<svg width="31" height="31" viewBox="0 0 31 31" fill="none" xmlns="http://www.w3.org/2000/svg">
<path fill-rule="evenodd" clip-rule="evenodd" d="M15.5 6.45817C15.5 5.7448 16.0783 5.1665 16.7917 5.1665H24.5417C25.255 5.1665 25.8333 5.7448 25.8333 6.45817V14.2082C25.8333 14.9215 25.255 15.4998 24.5417 15.4998C23.8283 15.4998 23.25 14.9215 23.25 14.2082V7.74984H16.7917C16.0783 7.74984 15.5 7.17154 15.5 6.45817Z" fill="#1C2E42"/>
<path fill-rule="evenodd" clip-rule="evenodd" d="M25.455 5.54482C25.9594 6.04925 25.9594 6.86709 25.455 7.37152L7.37164 25.4548C6.86721 25.9593 6.04937 25.9593 5.54495 25.4548C5.04052 24.9504 5.04052 24.1326 5.54495 23.6282L23.6283 5.54482C24.1327 5.0404 24.9505 5.0404 25.455 5.54482Z" fill="#1C2E42"/>
</svg>
