<svg width="64" height="64" viewBox="0 0 64 64" fill="none" xmlns="http://www.w3.org/2000/svg">
<path opacity="0.2" d="M3.20913 17.4851C3.0115 17.8245 2.90795 18.2105 2.90913 18.6033V45.4942C2.91121 45.8826 3.01568 46.2636 3.212 46.5988C3.40832 46.934 3.68954 47.2114 4.02731 47.4033L28.0273 60.9033C28.3509 61.0881 28.7183 61.1824 29.0909 61.176L29.3364 32.0487L3.20913 17.4851Z" fill="#006644"/>
<path fill-rule="evenodd" clip-rule="evenodd" d="M1.93864 16.7769C2.32977 16.0752 3.21566 15.8235 3.91733 16.2146L29.3297 30.3797L54.2543 16.2204C54.9528 15.8236 55.8407 16.0681 56.2375 16.7666C56.6343 17.4651 56.3897 18.353 55.6912 18.7498L30.0549 33.3134C29.613 33.5645 29.0721 33.5667 28.6282 33.3192L2.50095 18.7556C1.79927 18.3645 1.54752 17.4786 1.93864 16.7769Z" fill="#006644"/>
<path fill-rule="evenodd" clip-rule="evenodd" d="M29.3486 30.5942C30.1519 30.601 30.7976 31.2577 30.7908 32.061L30.5454 61.1882C30.5386 61.9915 29.8819 62.6372 29.0786 62.6305C28.2753 62.6237 27.6296 61.967 27.6364 61.1637L27.8819 32.0364C27.8886 31.2331 28.5453 30.5874 29.3486 30.5942Z" fill="#006644"/>
<path fill-rule="evenodd" clip-rule="evenodd" d="M42.1415 9.25529C41.7535 8.55187 40.8688 8.29614 40.1653 8.68411L13.7108 23.275C13.2468 23.5309 12.9587 24.0188 12.9587 24.5487V38.7305C12.9587 39.5338 13.61 40.185 14.4133 40.185C15.2166 40.185 15.8678 39.5338 15.8678 38.7305V25.4076L41.5703 11.2314C42.2737 10.8435 42.5295 9.95872 42.1415 9.25529Z" fill="#36B37E"/>
<path fill-rule="evenodd" clip-rule="evenodd" d="M27.308 1.92985C27.8505 1.61845 28.4652 1.45456 29.0909 1.45456C29.7166 1.45456 30.3313 1.61845 30.8739 1.92985L54.8728 15.4293C55.433 15.7474 55.8994 16.2076 56.225 16.7634C56.5505 17.3193 56.7238 17.9512 56.7273 18.5954L56.7273 18.6032L56.7273 45.4941H55.2725L56.7273 45.5019C56.7238 46.1461 56.5505 46.778 56.225 47.3339C55.8994 47.8897 55.433 48.3499 54.8728 48.668L54.8677 48.6709L30.8738 62.1675C30.3313 62.4789 29.7166 62.6427 29.0909 62.6427C28.4653 62.6427 27.8506 62.4789 27.308 62.1675L3.31417 48.6709L3.309 48.668C2.74883 48.3499 2.28244 47.8897 1.95686 47.3339C1.63128 46.778 1.45803 46.1461 1.45457 45.5019L1.45453 45.4941L1.45455 18.5954C1.45801 17.9512 1.63128 17.3193 1.95686 16.7634C2.28244 16.2076 2.74883 15.7474 3.309 15.4293L3.31416 15.4263L27.308 1.92985ZM53.8182 45.4893V18.608C53.817 18.4764 53.7813 18.3473 53.7148 18.2337C53.6481 18.1199 53.5527 18.0255 53.4382 17.96C53.4376 17.9597 53.4369 17.9593 53.4363 17.9589L29.4272 4.45386C29.325 4.39481 29.209 4.36365 29.0909 4.36365C28.9728 4.36365 28.8568 4.39473 28.7545 4.45378L28.7404 4.46193L4.74555 17.9589C4.74491 17.9593 4.74426 17.9597 4.74362 17.96C4.62911 18.0255 4.53375 18.1199 4.46707 18.2337C4.4005 18.3474 4.36485 18.4764 4.36364 18.6081V45.4892C4.36485 45.6209 4.4005 45.7499 4.46707 45.8636C4.53378 45.9775 4.62919 46.0719 4.74377 46.1374C4.74436 46.1377 4.74496 46.138 4.74555 46.1384L28.7546 59.6434C28.8569 59.7025 28.9728 59.7337 29.0909 59.7337C29.209 59.7337 29.325 59.7026 29.4273 59.6435L29.4414 59.6354L53.4363 46.1384C53.4369 46.138 53.4375 46.1377 53.4381 46.1373C53.5526 46.0719 53.648 45.9775 53.7148 45.8636C53.7813 45.75 53.817 45.6209 53.8182 45.4893Z" fill="#006644"/>
<path d="M45.508 39.5433H51.8674V48.0225H45.508V39.5433Z" fill="white"/>
<path d="M51.868 39.5433L62.4669 36.3636V51.2022L51.868 48.0225V39.5433Z" fill="white"/>
<path d="M45.508 39.5433L34.9091 36.3636V51.2022L45.508 48.0225V39.5433Z" fill="white"/>
<path d="M55.0472 62.8611L49.7477 48.0226H51.8675L55.0472 49.0824L62.4664 58.6215L57.1669 58.0916L55.0472 62.8611Z" fill="white"/>
<path d="M42.3289 62.8611L47.6284 48.0226H45.5086L42.3289 49.0824L34.9096 58.6215L40.2091 58.0916L42.3289 62.8611Z" fill="white"/>
<path opacity="0.2" d="M45.508 39.5433H51.8674V48.0225H45.508V39.5433Z" fill="#006644"/>
<path opacity="0.2" d="M51.868 39.5433L62.4669 36.3636V51.2022L51.868 48.0225V39.5433Z" fill="#006644"/>
<path opacity="0.2" d="M45.508 39.5433L34.9091 36.3636V51.2022L45.508 48.0225V39.5433Z" fill="#006644"/>
<path opacity="0.2" d="M55.0472 62.8611L49.7477 48.0226H51.8675L55.0472 49.0824L62.4664 58.6215L57.1669 58.0916L55.0472 62.8611Z" fill="#006644"/>
<path opacity="0.2" d="M42.3289 62.8611L47.6284 48.0226H45.5086L42.3289 49.0824L34.9096 58.6215L40.2091 58.0916L42.3289 62.8611Z" fill="#006644"/>
<path fill-rule="evenodd" clip-rule="evenodd" d="M44.4171 39.5432C44.4171 38.9407 44.9055 38.4523 45.508 38.4523H51.8674C52.4699 38.4523 52.9583 38.9407 52.9583 39.5432V48.0224C52.9583 48.6249 52.4699 49.1133 51.8674 49.1133H45.508C44.9055 49.1133 44.4171 48.6249 44.4171 48.0224V39.5432ZM46.5989 40.6341V46.9315H50.7765V40.6341H46.5989Z" fill="#36B37E"/>
<path fill-rule="evenodd" clip-rule="evenodd" d="M63.1181 35.4884C63.3948 35.6943 63.5578 36.0188 63.5578 36.3637V51.2022C63.5578 51.547 63.3948 51.8716 63.1181 52.0774C62.8415 52.2833 62.4838 52.3462 62.1535 52.2471L51.5545 49.0674C51.0931 48.929 50.7771 48.5043 50.7771 48.0225V39.5433C50.7771 39.0616 51.0931 38.6369 51.5545 38.4984L62.1535 35.3188C62.4838 35.2197 62.8415 35.2826 63.1181 35.4884ZM52.9589 40.355V47.2108L61.376 49.736V37.8299L52.9589 40.355Z" fill="#36B37E"/>
<path fill-rule="evenodd" clip-rule="evenodd" d="M34.2579 35.4884C33.9812 35.6943 33.8182 36.0188 33.8182 36.3637V51.2022C33.8182 51.547 33.9812 51.8716 34.2579 52.0774C34.5345 52.2833 34.8923 52.3462 35.2226 52.2471L45.8215 49.0674C46.2829 48.929 46.5989 48.5043 46.5989 48.0225V39.5433C46.5989 39.0616 46.2829 38.6369 45.8215 38.4984L35.2226 35.3188C34.8923 35.2197 34.5345 35.2826 34.2579 35.4884ZM44.4171 40.355V47.2108L36 49.736V37.8299L44.4171 40.355Z" fill="#36B37E"/>
<path fill-rule="evenodd" clip-rule="evenodd" d="M50.7771 43.7829C50.7771 43.1804 51.2655 42.692 51.868 42.692H56.1076C56.7101 42.692 57.1985 43.1804 57.1985 43.7829C57.1985 44.3854 56.7101 44.8738 56.1076 44.8738H51.868C51.2655 44.8738 50.7771 44.3854 50.7771 43.7829Z" fill="#36B37E"/>
<path fill-rule="evenodd" clip-rule="evenodd" d="M40.1775 43.7829C40.1775 43.1804 40.6659 42.692 41.2684 42.692H45.508C46.1105 42.692 46.5989 43.1804 46.5989 43.7829C46.5989 44.3854 46.1105 44.8738 45.508 44.8738H41.2684C40.6659 44.8738 40.1775 44.3854 40.1775 43.7829Z" fill="#36B37E"/>
<path fill-rule="evenodd" clip-rule="evenodd" d="M48.856 47.3942C49.0603 47.1042 49.3929 46.9317 49.7477 46.9317H51.8675C51.9847 46.9317 52.1012 46.9506 52.2125 46.9877L55.3921 48.0476C55.5965 48.1157 55.776 48.2428 55.9083 48.4128L63.3275 57.9518C63.5954 58.2963 63.6323 58.7672 63.4213 59.1491C63.2103 59.531 62.792 59.7505 62.3579 59.7071L57.8434 59.2556L56.044 63.3042C55.8629 63.7118 55.4519 63.9681 55.0062 63.9513C54.5604 63.9345 54.1698 63.6481 54.0198 63.2281L48.7203 48.3896C48.601 48.0555 48.6516 47.6842 48.856 47.3942ZM51.2957 49.1136L55.1575 59.9267L56.1701 57.6486C56.3613 57.2183 56.807 56.9593 57.2755 57.0061L60.0432 57.2829L54.3888 50.013L51.6904 49.1136H51.2957Z" fill="#36B37E"/>
<path fill-rule="evenodd" clip-rule="evenodd" d="M48.5201 47.3942C48.3157 47.1042 47.9831 46.9317 47.6284 46.9317H45.5086C45.3913 46.9317 45.2748 46.9506 45.1636 46.9877L41.9839 48.0476C41.7796 48.1157 41.6 48.2428 41.4678 48.4128L34.0485 57.9518C33.7806 58.2963 33.7437 58.7672 33.9547 59.1491C34.1657 59.531 34.584 59.7505 35.0182 59.7071L39.5326 59.2556L41.332 63.3042C41.5131 63.7118 41.9242 63.9681 42.3699 63.9513C42.8156 63.9345 43.2062 63.6481 43.3562 63.2281L48.6557 48.3896C48.775 48.0555 48.7244 47.6842 48.5201 47.3942ZM46.0803 49.1136L42.2185 59.9267L41.206 57.6486C41.0147 57.2183 40.569 56.9593 40.1005 57.0061L37.3328 57.2829L42.9872 50.013L45.6856 49.1136H46.0803Z" fill="#36B37E"/>
</svg>
