<svg width="64" height="64" viewBox="0 0 64 64" fill="none" xmlns="http://www.w3.org/2000/svg">
<path opacity="0.2" d="M57.8355 21.295H6.16457L13.054 12.2526H50.946L57.8355 21.295Z" fill="#006644"/>
<path opacity="0.2" d="M56.8694 48.4274V61.4408C56.8694 61.6438 56.6295 61.8385 56.2024 61.9821C55.7752 62.1257 55.196 62.2063 54.5919 62.2063H9.04182C8.43779 62.2063 7.85849 62.1257 7.43138 61.9821C7.00426 61.8385 6.76431 61.6438 6.76431 61.4408V48.4274H56.8694Z" fill="#006644"/>
<path fill-rule="evenodd" clip-rule="evenodd" d="M11.8014 39.8105C11.8014 39.1187 12.3622 38.5578 13.054 38.5578H50.946C51.6378 38.5578 52.1986 39.1187 52.1986 39.8105C52.1986 40.5023 51.6378 41.0631 50.946 41.0631H13.054C12.3622 41.0631 11.8014 40.5023 11.8014 39.8105Z" fill="#36B37E"/>
<path fill-rule="evenodd" clip-rule="evenodd" d="M11.8014 48.4223V39.8105H14.3066V48.4223H11.8014ZM49.6934 48.4223V39.8105H52.1986V48.4223H49.6934Z" fill="#36B37E"/>
<path fill-rule="evenodd" clip-rule="evenodd" d="M14.3066 20.8642V39.8102H11.8014V20.8642H14.3066ZM49.6934 39.8102V20.8642H52.1986V39.8102H49.6934Z" fill="#36B37E"/>
<path fill-rule="evenodd" clip-rule="evenodd" d="M12.0576 11.4935C12.2946 11.1825 12.6631 11 13.054 11H50.946C51.3369 11 51.7055 11.1825 51.9424 11.4935L58.8318 20.5359C59.1204 20.9146 59.1693 21.4243 58.958 21.851C58.7466 22.2777 58.3116 22.5477 57.8355 22.5477H6.16456C5.68839 22.5477 5.2534 22.2777 5.04206 21.851C4.83073 21.4243 4.8796 20.9146 5.16818 20.5359L12.0576 11.4935ZM13.6744 13.5053L8.69372 20.0424H55.3063L50.3256 13.5053H13.6744Z" fill="#006644"/>
<path fill-rule="evenodd" clip-rule="evenodd" d="M13.8111 38.8125C14.3623 39.2307 14.4701 40.0164 14.0519 40.5676L7.16245 49.6479C6.7443 50.199 5.95854 50.3068 5.40741 49.8887C4.85628 49.4705 4.74848 48.6848 5.16664 48.1336L12.0561 39.0533C12.4742 38.5022 13.26 38.3944 13.8111 38.8125ZM50.1889 38.8125C50.74 38.3944 51.5257 38.5022 51.9439 39.0533L58.8334 48.1336C59.2515 48.6848 59.1437 49.4705 58.5926 49.8887C58.0415 50.3068 57.2557 50.199 56.8375 49.6479L49.9481 40.5676C49.5299 40.0164 49.6377 39.2307 50.1889 38.8125Z" fill="#36B37E"/>
<path fill-rule="evenodd" clip-rule="evenodd" d="M4.91193 48.8907C4.91193 48.1989 5.47275 47.6381 6.16455 47.6381H57.8355C58.5273 47.6381 59.0881 48.1989 59.0881 48.8907V59.931C59.0881 60.8793 58.6979 61.7798 58.0181 62.4369C57.3397 63.0926 56.4284 63.4537 55.4868 63.4537H8.51323C7.5716 63.4537 6.66032 63.0926 5.98192 62.4369C5.30208 61.7798 4.91193 60.8793 4.91193 59.931V48.8907ZM7.41718 50.1433V59.931C7.41718 60.1868 7.52193 60.4412 7.72301 60.6355C7.92554 60.8313 8.20904 60.9485 8.51323 60.9485H55.4868C55.791 60.9485 56.0745 60.8313 56.277 60.6355C56.4781 60.4412 56.5828 60.1868 56.5828 59.931V50.1433H7.41718Z" fill="#006644"/>
<circle cx="50.5" cy="9.5" r="9.5" fill="#36B37E"/>
<path d="M49.9343 15H51.6282V5.34354H50.1515L47.3718 8.15216L48.3563 9.18006L49.9343 7.54411V15Z" fill="#FCFCFC"/>
</svg>
