<svg width="64" height="64" viewBox="0 0 64 64" fill="none" xmlns="http://www.w3.org/2000/svg">
<path fill-rule="evenodd" clip-rule="evenodd" d="M31.3601 10.4146C22.6199 10.4146 15.5346 17.4998 15.5346 26.24C15.5346 34.9802 22.6199 42.0655 31.3601 42.0655C40.1002 42.0655 47.1855 34.9802 47.1855 26.24C47.1855 17.4998 40.1002 10.4146 31.3601 10.4146ZM12.6255 26.24C12.6255 15.8932 21.0133 7.50546 31.3601 7.50546C41.7069 7.50546 50.0946 15.8932 50.0946 26.24C50.0946 36.5868 41.7069 44.9746 31.3601 44.9746C21.0133 44.9746 12.6255 36.5868 12.6255 26.24Z" fill="#006644"/>
<path fill-rule="evenodd" clip-rule="evenodd" d="M31.9998 44.9746C27.1266 44.9746 22.3174 46.5285 18.0533 49.5134C14.3639 52.0959 11.1918 55.6746 8.78648 59.9855H55.213C52.8077 55.6746 49.6356 52.0959 45.9462 49.5134C41.6821 46.5285 36.8729 44.9746 31.9998 44.9746ZM16.3851 47.1301C21.1086 43.8237 26.4947 42.0655 31.9998 42.0655C37.5048 42.0655 42.891 43.8237 47.6144 47.1301C52.3344 50.4341 56.2219 55.1627 58.913 60.8147C59.1276 61.2654 59.0961 61.7946 58.8296 62.2166C58.5631 62.6387 58.0989 62.8946 57.5998 62.8946H6.39975C5.90062 62.8946 5.43635 62.6387 5.16987 62.2166C4.90338 61.7946 4.8719 61.2654 5.08648 60.8147C7.77761 55.1627 11.6652 50.4341 16.3851 47.1301Z" fill="#006644"/>
<path opacity="0.2" d="M31.3601 43.52C40.9036 43.52 48.6401 35.7835 48.6401 26.24C48.6401 16.6965 40.9036 8.95999 31.3601 8.95999C21.8166 8.95999 14.0801 16.6965 14.0801 26.24C14.0801 35.7835 21.8166 43.52 31.3601 43.52Z" fill="#006644"/>
<path opacity="0.2" fill-rule="evenodd" clip-rule="evenodd" d="M31.3601 10.4146C22.6199 10.4146 15.5346 17.4998 15.5346 26.24C15.5346 34.9802 22.6199 42.0655 31.3601 42.0655C40.1002 42.0655 47.1855 34.9802 47.1855 26.24C47.1855 17.4998 40.1002 10.4146 31.3601 10.4146ZM12.6255 26.24C12.6255 15.8932 21.0133 7.50546 31.3601 7.50546C41.7069 7.50546 50.0946 15.8932 50.0946 26.24C50.0946 36.5868 41.7069 44.9746 31.3601 44.9746C21.0133 44.9746 12.6255 36.5868 12.6255 26.24Z" fill="#006644"/>
<path opacity="0.2" d="M6.39975 61.44C8.99389 55.9917 12.7254 51.4674 17.2192 48.3217C21.713 45.1761 26.8106 43.52 31.9998 43.52C37.1889 43.52 42.2865 45.1761 46.7803 48.3217C51.2741 51.4674 55.0056 55.9917 57.5998 61.44" fill="#006644"/>
<path opacity="0.2" fill-rule="evenodd" clip-rule="evenodd" d="M31.9998 44.9746C27.1266 44.9746 22.3174 46.5285 18.0533 49.5134C14.3639 52.0959 11.1918 55.6746 8.78648 59.9855H55.213C52.8077 55.6746 49.6356 52.0959 45.9462 49.5134C41.6821 46.5285 36.8729 44.9746 31.9998 44.9746ZM16.3851 47.1301C21.1086 43.8237 26.4947 42.0655 31.9998 42.0655C37.5048 42.0655 42.891 43.8237 47.6144 47.1301C52.3344 50.4341 56.2219 55.1627 58.913 60.8147C59.1276 61.2654 59.0961 61.7946 58.8296 62.2166C58.5631 62.6387 58.0989 62.8946 57.5998 62.8946H6.39975C5.90062 62.8946 5.43635 62.6387 5.16987 62.2166C4.90338 61.7946 4.8719 61.2654 5.08648 60.8147C7.77761 55.1627 11.6652 50.4341 16.3851 47.1301Z" fill="#006644"/>
<path fill-rule="evenodd" clip-rule="evenodd" d="M31.3601 10.4146C22.6199 10.4146 15.5346 17.4998 15.5346 26.24C15.5346 34.9802 22.6199 42.0655 31.3601 42.0655C40.1002 42.0655 47.1855 34.9802 47.1855 26.24C47.1855 17.4998 40.1002 10.4146 31.3601 10.4146ZM12.6255 26.24C12.6255 15.8932 21.0133 7.50546 31.3601 7.50546C41.7069 7.50546 50.0946 15.8932 50.0946 26.24C50.0946 36.5868 41.7069 44.9746 31.3601 44.9746C21.0133 44.9746 12.6255 36.5868 12.6255 26.24Z" fill="#36B37E"/>
<path fill-rule="evenodd" clip-rule="evenodd" d="M31.9998 44.9746C27.1266 44.9746 22.3174 46.5285 18.0533 49.5134C14.3639 52.0959 11.1918 55.6746 8.78648 59.9855H55.213C52.8077 55.6746 49.6356 52.0959 45.9462 49.5134C41.6821 46.5285 36.8729 44.9746 31.9998 44.9746ZM16.3851 47.1301C21.1086 43.8237 26.4947 42.0655 31.9998 42.0655C37.5048 42.0655 42.891 43.8237 47.6144 47.1301C52.3344 50.4341 56.2219 55.1627 58.913 60.8147C59.1276 61.2654 59.0961 61.7946 58.8296 62.2166C58.5631 62.6387 58.0989 62.8946 57.5998 62.8946H6.39975C5.90062 62.8946 5.43635 62.6387 5.16987 62.2166C4.90338 61.7946 4.8719 61.2654 5.08648 60.8147C7.77761 55.1627 11.6652 50.4341 16.3851 47.1301Z" fill="#36B37E"/>
<path fill-rule="evenodd" clip-rule="evenodd" d="M2.38495 22.1091C2.38495 19.6991 4.33862 17.7454 6.74859 17.7454H8.6104C11.0204 17.7454 12.974 19.6991 12.974 22.1091V31.6509C12.974 34.0608 11.0204 36.0145 8.6104 36.0145H6.74859C4.33862 36.0145 2.38495 34.0608 2.38495 31.6509V22.1091ZM6.74859 20.6545C5.94526 20.6545 5.29404 21.3057 5.29404 22.1091V31.6509C5.29404 32.4542 5.94526 33.1054 6.74859 33.1054H8.6104C9.41373 33.1054 10.0649 32.4542 10.0649 31.6509V22.1091C10.0649 21.3057 9.41373 20.6545 8.6104 20.6545H6.74859Z" fill="#006644"/>
<path fill-rule="evenodd" clip-rule="evenodd" d="M49.7453 22.1091C49.7453 19.6991 51.699 17.7454 54.109 17.7454H55.9708C58.3807 17.7454 60.3344 19.6991 60.3344 22.1091V31.6509C60.3344 34.0608 58.3807 36.0145 55.9708 36.0145H54.109C51.699 36.0145 49.7453 34.0608 49.7453 31.6509V22.1091ZM54.109 20.6545C53.3056 20.6545 52.6544 21.3057 52.6544 22.1091V31.6509C52.6544 32.4542 53.3056 33.1054 54.109 33.1054H55.9708C56.7741 33.1054 57.4253 32.4542 57.4253 31.6509V22.1091C57.4253 21.3057 56.7741 20.6545 55.9708 20.6545H54.109Z" fill="#006644"/>
<path fill-rule="evenodd" clip-rule="evenodd" d="M31.3988 4.01456C21.1782 4.01456 12.725 10.1976 10.3716 19.6372C10.1773 20.4167 9.38787 20.891 8.60841 20.6967C7.82894 20.5023 7.3546 19.7129 7.54893 18.9335C10.2567 8.07246 19.9765 1.10547 31.3988 1.10547C42.7374 1.10547 52.3558 8.24389 55.1668 18.9148C55.3715 19.6916 54.9076 20.4873 54.1308 20.6919C53.354 20.8965 52.5583 20.4327 52.3537 19.6559C49.8974 10.3316 41.4888 4.01456 31.3988 4.01456ZM10.051 33.5439C10.6275 32.9845 11.5484 32.9984 12.1078 33.5749C13.7244 35.241 16.2122 36.1329 19.5952 36.5656C22.6291 36.9537 26.1499 36.9492 30.0489 36.9442C30.494 36.9436 30.944 36.943 31.3988 36.943C32.2021 36.943 32.8534 37.5942 32.8534 38.3975C32.8534 39.2009 32.2021 39.8521 31.3988 39.8521C30.943 39.8521 30.4884 39.8528 30.0356 39.8534C26.1799 39.8592 22.459 39.8647 19.2262 39.4512C15.6166 38.9895 12.3254 37.9766 10.02 35.6007C9.46058 35.0242 9.47445 34.1033 10.051 33.5439Z" fill="#006644"/>
</svg>
