<svg width="64" height="64" viewBox="0 0 64 64" fill="none" xmlns="http://www.w3.org/2000/svg">
<path opacity="0.2" d="M55.0284 49.3182C55.0291 48.1449 54.732 46.9921 54.1667 45.9758C53.6015 44.9594 52.7882 44.1153 51.8086 43.5283C50.829 42.9414 49.7176 42.6323 48.5863 42.6321C47.4549 42.6319 46.3434 42.9406 45.3636 43.5273V29.2727H62.5455V47.0909C62.5455 47.6816 62.3192 48.2481 61.9164 48.6658C61.5136 49.0835 60.9674 49.3182 60.3977 49.3182H55.0284Z" fill="#006644"/>
<path opacity="0.2" d="M45.3637 35.9545H1.45456V47.0909C1.45456 47.6816 1.68587 48.2481 2.09759 48.6658C2.50932 49.0835 3.06774 49.3182 3.65001 49.3182H9.13865C9.13865 47.546 9.83257 45.8465 11.0678 44.5934C12.3029 43.3403 13.9782 42.6363 15.725 42.6363C17.4718 42.6363 19.1471 43.3403 20.3823 44.5934C21.6175 45.8465 22.3114 47.546 22.3114 49.3182H42.0705C42.0697 48.1445 42.3737 46.9914 42.9518 45.9748C43.5299 44.9582 44.3618 44.1141 45.3637 43.5273V35.9545Z" fill="#006644"/>
<path fill-rule="evenodd" clip-rule="evenodd" d="M0 35.9545C0 35.1512 0.651222 34.5 1.45455 34.5H45.3636C46.167 34.5 46.8182 35.1512 46.8182 35.9545C46.8182 36.7579 46.167 37.4091 45.3636 37.4091H1.45455C0.651222 37.4091 0 36.7579 0 35.9545Z" fill="#36B37E"/>
<path fill-rule="evenodd" clip-rule="evenodd" d="M21 49.3182C21 48.5149 21.6512 47.8636 22.4545 47.8636H41.5455C42.3488 47.8636 43 48.5149 43 49.3182C43 50.1215 42.3488 50.7727 41.5455 50.7727H22.4545C21.6512 50.7727 21 50.1215 21 49.3182Z" fill="#36B37E"/>
<path fill-rule="evenodd" clip-rule="evenodd" d="M43.9091 29.2727C43.9091 28.4694 44.5603 27.8182 45.3637 27.8182H62.5455C63.3488 27.8182 64 28.4694 64 29.2727V47.0909C64 48.0507 63.6329 48.9813 62.9635 49.6755C62.2923 50.3715 61.3706 50.7727 60.3978 50.7727H55.0284C54.2251 50.7727 53.5739 50.1215 53.5739 49.3182C53.5739 48.5149 54.2251 47.8636 55.0284 47.8636H60.3978C60.5642 47.8636 60.735 47.7956 60.8694 47.6562C61.0055 47.515 61.0909 47.3126 61.0909 47.0909V30.7273H45.3637C44.5603 30.7273 43.9091 30.076 43.9091 29.2727Z" fill="#36B37E"/>
<path fill-rule="evenodd" clip-rule="evenodd" d="M3.65 15.4545C3.45605 15.4545 3.26844 15.5319 3.12888 15.6722C2.98905 15.8128 2.90909 16.0052 2.90909 16.2074V47.1108C2.90909 47.313 2.98906 47.5053 3.12888 47.6459C3.26844 47.7862 3.45605 47.8636 3.65 47.8636H9.13864C9.94196 47.8636 10.5932 48.5148 10.5932 49.3182C10.5932 50.1215 9.94196 50.7727 9.13864 50.7727H3.65C2.67941 50.7727 1.75017 50.385 1.06628 49.6974C0.382647 49.01 0 48.0794 0 47.1108V16.2074C0 15.2387 0.382648 14.3081 1.06628 13.6208C1.75017 12.9332 2.67941 12.5454 3.65 12.5454H45.3636C46.167 12.5454 46.8182 13.1967 46.8182 14V43.1136C46.8182 43.9169 46.167 44.5682 45.3636 44.5682C44.5603 44.5682 43.9091 43.9169 43.9091 43.1136V15.4545H3.65Z" fill="#36B37E"/>
<path fill-rule="evenodd" clip-rule="evenodd" d="M45.0909 18.9091C45.0909 18.1058 45.7421 17.4546 46.5454 17.4546H58.3715C58.9618 17.4546 59.4935 17.8113 59.7174 18.3574L63.8913 28.5392C64.196 29.2825 63.8404 30.1321 63.0971 30.4368C62.3538 30.7415 61.5043 30.3859 61.1996 29.6426L57.3958 20.3637H46.5454C45.7421 20.3637 45.0909 19.7124 45.0909 18.9091Z" fill="#36B37E"/>
<path fill-rule="evenodd" clip-rule="evenodd" d="M48.2273 44.0909C45.3403 44.0909 43 46.4312 43 49.3182C43 52.2051 45.3403 54.5455 48.2273 54.5455C51.1142 54.5455 53.4545 52.2051 53.4545 49.3182C53.4545 46.4312 51.1142 44.0909 48.2273 44.0909ZM40.0909 49.3182C40.0909 44.8246 43.7337 41.1818 48.2273 41.1818C52.7209 41.1818 56.3636 44.8246 56.3636 49.3182C56.3636 53.8118 52.7209 57.4546 48.2273 57.4546C43.7337 57.4546 40.0909 53.8118 40.0909 49.3182Z" fill="#006644"/>
<path fill-rule="evenodd" clip-rule="evenodd" d="M15.7727 44.0909C12.8858 44.0909 10.5454 46.4312 10.5454 49.3182C10.5454 52.2051 12.8858 54.5455 15.7727 54.5455C18.6597 54.5455 21 52.2051 21 49.3182C21 46.4312 18.6597 44.0909 15.7727 44.0909ZM7.63635 49.3182C7.63635 44.8246 11.2791 41.1818 15.7727 41.1818C20.2663 41.1818 23.9091 44.8246 23.9091 49.3182C23.9091 53.8118 20.2663 57.4546 15.7727 57.4546C11.2791 57.4546 7.63635 53.8118 7.63635 49.3182Z" fill="#006644"/>
</svg>
